<?xml version="1.0" encoding="UTF-8" standalone="no"?><svg xmlns:svg="http://www.w3.org/2000/svg" xmlns="http://www.w3.org/2000/svg" xmlns:xlink="http://www.w3.org/1999/xlink" version="1.0" width="64px" height="64px" viewBox="0 0 128 128" xml:space="preserve"><rect x="0" y="0" width="100%" height="100%" fill="#FFFFFF" /><g><path d="M59.6 0h8v40h-8V0z" fill="#f5bf02"/><path d="M59.6 0h8v40h-8V0z" fill="#fdf2cc" transform="rotate(30 64 64)"/><path d="M59.6 0h8v40h-8V0z" fill="#fdf2cc" transform="rotate(60 64 64)"/><path d="M59.6 0h8v40h-8V0z" fill="#fdf2cc" transform="rotate(90 64 64)"/><path d="M59.6 0h8v40h-8V0z" fill="#fdf2cc" transform="rotate(120 64 64)"/><path d="M59.6 0h8v40h-8V0z" fill="#fcecb3" transform="rotate(150 64 64)"/><path d="M59.6 0h8v40h-8V0z" fill="#fbe59a" transform="rotate(180 64 64)"/><path d="M59.6 0h8v40h-8V0z" fill="#fadf80" transform="rotate(210 64 64)"/><path d="M59.6 0h8v40h-8V0z" fill="#f9d967" transform="rotate(240 64 64)"/><path d="M59.6 0h8v40h-8V0z" fill="#f8d24d" transform="rotate(270 64 64)"/><path d="M59.6 0h8v40h-8V0z" fill="#f7cc35" transform="rotate(300 64 64)"/><path d="M59.6 0h8v40h-8V0z" fill="#f6c51b" transform="rotate(330 64 64)"/><animateTransform attributeName="transform" type="rotate" values="0 64 64;30 64 64;60 64 64;90 64 64;120 64 64;150 64 64;180 64 64;210 64 64;240 64 64;270 64 64;300 64 64;330 64 64" calcMode="discrete" dur="1080ms" repeatCount="indefinite"></animateTransform></g></svg>